<!-- Generated by IcoMoon.io -->
<svg version="1.1" xmlns="http://www.w3.org/2000/svg" width="57" height="32" viewBox="0 0 57 32">
<title>foster</title>
<path fill="#afb1b8" d="M10.973 8.386h-0.002c-1.535 0-2.779 1.105-2.779 2.47v0.001c0 1.364 1.244 2.47 2.779 2.47h0.002c1.535 0 2.779-1.106 2.779-2.47v-0.001c0-1.364-1.244-2.47-2.779-2.47zM31.485 7.597c-0.004-1.894-0.853-3.711-2.36-5.050s-3.55-2.094-5.681-2.099c-2.132 0.003-4.177 0.758-5.684 2.097s-2.357 3.156-2.362 5.051v10.447s16.086-1.592 16.088-10.445v-0.002zM2.56 21.472c0.004 1.318 0.595 2.581 1.644 3.514s2.47 1.457 3.953 1.461c1.483-0.004 2.904-0.529 3.953-1.461s1.64-2.195 1.644-3.512v-7.269s-11.192 1.109-11.192 7.268zM8.156 22.774c-0.29 0-0.573-0.076-0.814-0.22-0.234-0.138-0.42-0.337-0.536-0.576l-0.003-0.008c-0.070-0.146-0.111-0.317-0.111-0.498 0-0.090 0.010-0.178 0.030-0.262l-0.002 0.008c0.056-0.253 0.196-0.485 0.401-0.667s0.466-0.307 0.75-0.356c0.086-0.016 0.185-0.025 0.286-0.025 0.201 0 0.394 0.036 0.572 0.103l-0.011-0.004c0.268 0.099 0.497 0.266 0.658 0.48s0.247 0.466 0.247 0.723c0.001 0.172-0.036 0.342-0.11 0.5-0.079 0.166-0.186 0.307-0.316 0.422l-0.001 0.001c-0.136 0.122-0.298 0.218-0.476 0.284-0.167 0.063-0.36 0.1-0.561 0.1-0 0-0.001 0-0.001 0h0v-0.005zM19.468 22.057h-1.080v1.116h-0.563v-2.731h1.778v0.456h-1.215v0.705h1.080v0.454zM22.171 21.869c0 0.269-0.047 0.504-0.142 0.707s-0.232 0.358-0.41 0.469c-0.167 0.104-0.37 0.165-0.587 0.165-0.007 0-0.014-0-0.021-0h0.001c-0.227 0-0.429-0.054-0.606-0.163-0.179-0.112-0.32-0.271-0.409-0.459l-0.003-0.007c-0.094-0.198-0.149-0.43-0.149-0.675 0-0.008 0-0.016 0-0.024v0.001-0.134c0-0.269 0.049-0.506 0.145-0.709 0.097-0.205 0.234-0.362 0.411-0.47 0.177-0.11 0.38-0.165 0.607-0.165s0.429 0.055 0.605 0.165c0.178 0.109 0.314 0.266 0.411 0.47 0.097 0.204 0.146 0.439 0.146 0.707v0.122zM21.601 21.745c0-0.286-0.051-0.504-0.154-0.653-0.091-0.135-0.244-0.223-0.417-0.223-0.008 0-0.015 0-0.023 0.001l0.001-0c-0.006-0-0.014-0-0.021-0-0.173 0-0.325 0.087-0.415 0.22l-0.001 0.002c-0.102 0.147-0.154 0.361-0.156 0.645v0.133c0 0.278 0.051 0.495 0.154 0.648s0.25 0.23 0.443 0.23c0.007 0 0.014 0 0.022 0 0.172 0 0.323-0.087 0.412-0.22l0.001-0.002c0.101-0.148 0.152-0.365 0.154-0.649v-0.133zM23.995 22.456c0-0.005 0-0.010 0-0.016 0-0.092-0.044-0.175-0.112-0.227l-0.001-0c-0.075-0.058-0.21-0.118-0.405-0.18-0.18-0.056-0.333-0.12-0.479-0.195l0.016 0.008c-0.31-0.168-0.465-0.394-0.465-0.677 0-0.147 0.041-0.279 0.124-0.394 0.084-0.116 0.204-0.207 0.358-0.272 0.156-0.065 0.332-0.097 0.525-0.097 0.195 0 0.369 0.035 0.522 0.107 0.152 0.070 0.271 0.169 0.354 0.298 0.085 0.128 0.128 0.275 0.128 0.438h-0.563c0-0.125-0.038-0.222-0.118-0.291-0.079-0.070-0.189-0.105-0.332-0.105-0.138 0-0.244 0.029-0.321 0.088-0.070 0.050-0.115 0.131-0.115 0.222 0 0.002 0 0.004 0 0.007v-0c0 0.089 0.045 0.163 0.133 0.223 0.090 0.060 0.222 0.116 0.396 0.168 0.32 0.096 0.553 0.216 0.7 0.358s0.22 0.32 0.22 0.532c0 0.236-0.090 0.422-0.269 0.557s-0.419 0.201-0.721 0.201c-0.21 0-0.401-0.038-0.574-0.115-0.162-0.069-0.296-0.177-0.394-0.313l-0.002-0.003c-0.084-0.126-0.135-0.281-0.135-0.448 0-0.006 0-0.012 0-0.018l-0 0.001h0.564c0 0.301 0.18 0.452 0.54 0.452 0.134 0 0.238-0.027 0.314-0.081 0.068-0.049 0.112-0.128 0.112-0.218 0-0.004-0-0.007-0-0.011l0 0.001zM26.997 20.898h-0.836v2.275h-0.563v-2.275h-0.824v-0.456h2.223v0.456zM28.962 21.989h-1.080v0.732h1.267v0.452h-1.83v-2.731h1.827v0.456h-1.264v0.651h1.080v0.44zM30.49 22.173h-0.448v1h-0.563v-2.731h1.014c0.323 0 0.572 0.072 0.746 0.216s0.262 0.347 0.262 0.609c0 0.186-0.040 0.342-0.122 0.467-0.090 0.131-0.215 0.233-0.36 0.294l-0.005 0.002 0.59 1.116v0.026h-0.604l-0.512-0.998zM30.042 21.717h0.454c0.141 0 0.25-0.035 0.328-0.106 0.072-0.071 0.116-0.169 0.116-0.277 0-0.007-0-0.015-0.001-0.022l0 0.001c0-0.129-0.036-0.23-0.11-0.304s-0.184-0.111-0.336-0.111h-0.452v0.819zM33.451 22.211v0.962h-0.563v-2.731h1.065c0.205 0 0.385 0.038 0.54 0.113 0.156 0.075 0.276 0.182 0.36 0.321 0.083 0.138 0.125 0.294 0.125 0.47 0 0.268-0.092 0.479-0.275 0.634-0.183 0.154-0.436 0.231-0.76 0.231h-0.493zM33.451 21.755h0.502c0.149 0 0.262-0.035 0.339-0.105 0.079-0.070 0.118-0.17 0.118-0.3 0-0.006 0-0.013 0-0.020 0-0.117-0.045-0.224-0.118-0.305l0 0c-0.079-0.082-0.188-0.125-0.326-0.127h-0.516v0.858zM37.009 21.989h-1.080v0.732h1.267v0.452h-1.83v-2.731h1.827v0.456h-1.264v0.651h1.080v0.44zM39.62 20.898h-0.836v2.275h-0.563v-2.275h-0.825v-0.456h2.224v0.456zM41.585 21.989h-1.079v0.732h1.267v0.452h-1.83v-2.731h1.827v0.456h-1.263v0.651h1.080v0.44zM43.113 22.173h-0.448v1h-0.563v-2.731h1.015c0.323 0 0.571 0.072 0.746 0.216s0.262 0.347 0.262 0.609c0 0.186-0.041 0.342-0.122 0.467-0.090 0.131-0.215 0.233-0.361 0.294l-0.005 0.002 0.591 1.116v0.026h-0.604l-0.512-0.998zM42.665 21.717h0.454c0.141 0 0.25-0.035 0.328-0.106 0.072-0.071 0.117-0.169 0.117-0.278 0-0.007-0-0.014-0.001-0.021l0 0.001c0-0.129-0.036-0.23-0.111-0.304-0.072-0.074-0.184-0.111-0.335-0.111h-0.452v0.819zM45.971 22.456c0-0.005 0-0.010 0-0.016 0-0.093-0.044-0.175-0.112-0.227l-0.001-0c-0.075-0.058-0.21-0.118-0.405-0.18-0.18-0.056-0.333-0.12-0.479-0.195l0.016 0.008c-0.31-0.168-0.465-0.394-0.465-0.677 0-0.147 0.042-0.279 0.124-0.394 0.084-0.116 0.204-0.207 0.358-0.272 0.156-0.065 0.332-0.097 0.525-0.097 0.195 0 0.369 0.035 0.522 0.107 0.152 0.070 0.271 0.169 0.354 0.298 0.085 0.128 0.128 0.275 0.128 0.438h-0.563c0-0.125-0.038-0.222-0.118-0.291-0.079-0.070-0.189-0.105-0.332-0.105-0.138 0-0.244 0.029-0.321 0.088-0.070 0.050-0.115 0.131-0.115 0.223 0 0.002 0 0.004 0 0.006v-0c0 0.089 0.045 0.163 0.134 0.223s0.222 0.116 0.396 0.168c0.32 0.096 0.553 0.216 0.7 0.358s0.22 0.32 0.22 0.532c0 0.236-0.090 0.422-0.269 0.557s-0.419 0.201-0.721 0.201c-0.21 0-0.401-0.038-0.574-0.115-0.162-0.069-0.296-0.177-0.394-0.313l-0.002-0.003c-0.084-0.126-0.135-0.281-0.135-0.448 0-0.006 0-0.012 0-0.018l-0 0.001h0.564c0 0.301 0.18 0.452 0.54 0.452 0.134 0 0.238-0.027 0.313-0.081 0.069-0.049 0.113-0.128 0.113-0.218 0-0.004-0-0.007-0-0.011l0 0z"></path>
</svg>
